<svg xmlns="http://www.w3.org/2000/svg" viewBox="0 0 512 512"><path fill="#16a34a" d="M272 96c-78.6 0-145.1 81.5-167.7 122.4c33.6-17 71.5-26.4 111.7-26.4h8V216c0 13.3 10.7 24 24 24s24-10.7 24-24V192h8c61.9 0 112 50.1 112 112c0 25.5-8.5 49-22.8 67.8c-12 15.8-9 38.4 6.8 50.4s38.4 9 50.4-6.8C488.7 386.4 512 347.8 512 304c0-114.9-93.1-208-208-208H272zM122.4 277.7C86.7 348.6 86.8 406.8 120.3 451.9L24.8 510.6C12.4 518.2-3.8 514.4 3.7 502l95.5-58.7c17.5 23.4 44 32.7 76.8 32.7c31.7 0 65.5-8.7 94-24V320c0-13.3-10.7-24-24-24s-24 10.7-24 24v91.3C181.5 434 148.8 425.4 135.2 407c-21.7-29.2-22-68.9 5.8-123.6c5.8-11.4-1.4-25.2-13.6-28.8s-22.8 3.5-28.5 14.8z"/></svg>
